<svg xmlns="http://www.w3.org/2000/svg" width="271" height="80" viewBox="0 0 271 80"><g transform="translate(-756 -38)"><g transform="translate(756 38)" fill="none" stroke="#82b011" stroke-width="1"><rect width="271" height="80" rx="10" stroke="none"/><rect x="0.5" y="0.5" width="270" height="79" rx="9.5" fill="none"/></g><path d="M6.534-11.88a5.444,5.444,0,0,1,2.34.459,3.459,3.459,0,0,1,1.5,1.314,3.83,3.83,0,0,1,.531,2.061,3.83,3.83,0,0,1-.531,2.061,3.459,3.459,0,0,1-1.5,1.314,5.444,5.444,0,0,1-2.34.459h-2.5V0H1.548V-11.88ZM6.156-6.174A2.522,2.522,0,0,0,7.83-6.651a1.734,1.734,0,0,0,.558-1.4,1.729,1.729,0,0,0-.558-1.4,2.556,2.556,0,0,0-1.674-.468H4.032v3.744ZM19.026.18a5.213,5.213,0,0,1-2.475-.558,3.918,3.918,0,0,1-1.629-1.6,5.146,5.146,0,0,1-.576-2.52,5.146,5.146,0,0,1,.576-2.52,3.946,3.946,0,0,1,1.611-1.6A4.909,4.909,0,0,1,18.9-9.18a4.586,4.586,0,0,1,2.322.549A3.714,3.714,0,0,1,22.68-7.137a4.5,4.5,0,0,1,.5,2.151q0,.36-.018.684t-.054.576H15.93v-1.71h6.1L20.844-5a2.647,2.647,0,0,0-.513-1.746,1.786,1.786,0,0,0-1.449-.612,2.1,2.1,0,0,0-1.179.324,1.974,1.974,0,0,0-.747.963A4.428,4.428,0,0,0,16.7-4.464a3.857,3.857,0,0,0,.279,1.575,1.989,1.989,0,0,0,.792.927,2.364,2.364,0,0,0,1.233.306,2.37,2.37,0,0,0,1.278-.306,2.07,2.07,0,0,0,.756-.846L23-2.052a3.152,3.152,0,0,1-.873,1.206,3.989,3.989,0,0,1-1.386.765A5.516,5.516,0,0,1,19.026.18ZM31.518-9.18a5.284,5.284,0,0,1,2.043.351,3.523,3.523,0,0,1,1.35.954,3.62,3.62,0,0,1,.729,1.341l-2.3.828a2.359,2.359,0,0,0-.612-1.224,1.62,1.62,0,0,0-1.17-.414,2.1,2.1,0,0,0-1.17.315,1.941,1.941,0,0,0-.738.954,4.369,4.369,0,0,0-.252,1.593A4.162,4.162,0,0,0,29.655-2.9a1.922,1.922,0,0,0,.756.936,2.163,2.163,0,0,0,1.161.306,2.036,2.036,0,0,0,.918-.189,1.606,1.606,0,0,0,.621-.549,2.224,2.224,0,0,0,.333-.864l2.232.72a3.3,3.3,0,0,1-.738,1.422,3.622,3.622,0,0,1-1.386.954A5.208,5.208,0,0,1,31.59.18a5.186,5.186,0,0,1-2.448-.558A3.9,3.9,0,0,1,27.5-1.98a5.146,5.146,0,0,1-.576-2.52A5.146,5.146,0,0,1,27.5-7.02a3.931,3.931,0,0,1,1.62-1.6A5,5,0,0,1,31.518-9.18ZM30.276-.144l.738-.468a3.64,3.64,0,0,1,1.881.828,1.96,1.96,0,0,1,.585,1.458,2.066,2.066,0,0,1-.657,1.584,2.472,2.472,0,0,1-1.755.612,3.125,3.125,0,0,1-1.053-.153,3.068,3.068,0,0,1-.729-.369l.432-1.314a3.485,3.485,0,0,0,.495.252,1.673,1.673,0,0,0,.639.108,1.085,1.085,0,0,0,.774-.288,1.082,1.082,0,0,0,.306-.828.98.98,0,0,0-.369-.756A4.344,4.344,0,0,0,30.276-.144Zm14.6-5.6a1.611,1.611,0,0,0-.441-1.206,1.588,1.588,0,0,0-1.161-.432,2.034,2.034,0,0,0-1.17.342A1.986,1.986,0,0,0,41.364-5.9l-2.106-.648A3.25,3.25,0,0,1,40.6-8.46a4.789,4.789,0,0,1,2.781-.72,5.337,5.337,0,0,1,2.07.369A3.01,3.01,0,0,1,46.827-7.7a3.258,3.258,0,0,1,.495,1.854V-2.2q0,.684.648.684a1.81,1.81,0,0,0,.576-.09L48.4-.072a2.6,2.6,0,0,1-1.17.234A2.852,2.852,0,0,1,46.1-.054a1.741,1.741,0,0,1-.792-.657,1.985,1.985,0,0,1-.288-1.107V-1.89l.432-.072A2.028,2.028,0,0,1,44.856-.8a3.236,3.236,0,0,1-1.179.729A4.156,4.156,0,0,1,42.246.18,4.086,4.086,0,0,1,40.662-.1a2.23,2.23,0,0,1-1.026-.819,2.349,2.349,0,0,1-.36-1.332A2.212,2.212,0,0,1,39.924-3.9a3.529,3.529,0,0,1,1.854-.873l3.384-.684-.018,1.53-2.16.432a2.724,2.724,0,0,0-.927.333.747.747,0,0,0-.315.675.783.783,0,0,0,.333.684,1.358,1.358,0,0,0,.8.234,3.031,3.031,0,0,0,.738-.09,1.981,1.981,0,0,0,.648-.288,1.33,1.33,0,0,0,.45-.54,1.922,1.922,0,0,0,.162-.828ZM58.05,0l4.338-11.88h2.97L69.7,0H67.122L64.4-8.082l-.54-1.8h-.036l-.5,1.764L60.588,0Zm2.556-2.9V-4.734h6.516V-2.9Zm21.06-8.244.288,1.764a1.388,1.388,0,0,1-.153-.009A1.55,1.55,0,0,0,81.63-9.4a1.824,1.824,0,0,0-1.233.369,1.279,1.279,0,0,0-.423,1.017l-1.008-.414a3.148,3.148,0,0,1,.288-1.341,2.383,2.383,0,0,1,.855-1,2.393,2.393,0,0,1,1.359-.378h.2Zm-2.952,9.45a3.537,3.537,0,0,1,2.25.63A2.126,2.126,0,0,1,81.756.7a2.619,2.619,0,0,1-.594,1.737A3.6,3.6,0,0,1,79.5,3.51a7.765,7.765,0,0,1-2.475.36,6.787,6.787,0,0,1-3.393-.648A1.93,1.93,0,0,1,72.558,1.53,1.6,1.6,0,0,1,73.125.288,3.006,3.006,0,0,1,75.006-.27l-.09.288A2.75,2.75,0,0,1,73.485-.6a1.645,1.645,0,0,1-.5-1.269,1.688,1.688,0,0,1,.639-1.359,3.04,3.04,0,0,1,1.737-.621l1.08.5h-.252a1.956,1.956,0,0,0-1.089.315.754.754,0,0,0-.315.585.628.628,0,0,0,.3.567,1.6,1.6,0,0,0,.855.189ZM77.04,2.178a6.072,6.072,0,0,0,1.539-.162,2.333,2.333,0,0,0,.9-.414.727.727,0,0,0,.3-.558A.658.658,0,0,0,79.506.5a1.666,1.666,0,0,0-.972-.207H75.492A1.127,1.127,0,0,0,74.781.5.71.71,0,0,0,74.5,1.1q0,.5.675.792A4.868,4.868,0,0,0,77.04,2.178ZM77.058-9.18a5.9,5.9,0,0,1,2.187.369,3.126,3.126,0,0,1,1.422,1.053,2.719,2.719,0,0,1,.495,1.638,2.689,2.689,0,0,1-.495,1.62,3.126,3.126,0,0,1-1.422,1.053,5.9,5.9,0,0,1-2.187.369A4.93,4.93,0,0,1,74-3.9,2.658,2.658,0,0,1,72.936-6.12a2.685,2.685,0,0,1,.5-1.638,3.191,3.191,0,0,1,1.422-1.053A5.881,5.881,0,0,1,77.058-9.18Zm0,1.548a1.775,1.775,0,0,0-1.188.4,1.361,1.361,0,0,0-.468,1.1,1.388,1.388,0,0,0,.468,1.107,1.75,1.75,0,0,0,1.188.405,1.716,1.716,0,0,0,1.179-.405A1.4,1.4,0,0,0,78.7-6.138a1.373,1.373,0,0,0-.459-1.1A1.74,1.74,0,0,0,77.058-7.632ZM89.514-9.18a4.987,4.987,0,0,1,2.4.558,4,4,0,0,1,1.62,1.6,5.081,5.081,0,0,1,.585,2.52,5.094,5.094,0,0,1-.585,2.511,3.989,3.989,0,0,1-1.62,1.611,4.987,4.987,0,0,1-2.4.558A5,5,0,0,1,87.12-.378a3.974,3.974,0,0,1-1.629-1.611A5.094,5.094,0,0,1,84.906-4.5a5.081,5.081,0,0,1,.585-2.52,3.989,3.989,0,0,1,1.629-1.6A5,5,0,0,1,89.514-9.18Zm0,1.836a2.06,2.06,0,0,0-1.161.315,1.964,1.964,0,0,0-.729.945A4.3,4.3,0,0,0,87.372-4.5a4.3,4.3,0,0,0,.252,1.584,1.964,1.964,0,0,0,.729.945,2.06,2.06,0,0,0,1.161.315,2.027,2.027,0,0,0,1.143-.315,1.964,1.964,0,0,0,.729-.945A4.3,4.3,0,0,0,91.638-4.5a4.3,4.3,0,0,0-.252-1.584,1.964,1.964,0,0,0-.729-.945A2.027,2.027,0,0,0,89.514-7.344ZM98.352,0V-9h2.142l.162,1.764a3.1,3.1,0,0,1,1.053-1.44,2.876,2.876,0,0,1,1.737-.5,2.668,2.668,0,0,1,.558.054,1.509,1.509,0,0,1,.414.144l-.288,2.07a1.9,1.9,0,0,0-.441-.108,5.122,5.122,0,0,0-.675-.036,2.243,2.243,0,0,0-1.044.261,2.093,2.093,0,0,0-.828.792,2.537,2.537,0,0,0-.324,1.341V0Zm14.724-5.742a1.611,1.611,0,0,0-.441-1.206,1.588,1.588,0,0,0-1.161-.432,2.034,2.034,0,0,0-1.17.342,1.986,1.986,0,0,0-.738,1.134l-2.106-.648A3.25,3.25,0,0,1,108.8-8.46a4.789,4.789,0,0,1,2.781-.72,5.337,5.337,0,0,1,2.07.369A3.01,3.01,0,0,1,115.029-7.7a3.258,3.258,0,0,1,.5,1.854V-2.2q0,.684.648.684a1.81,1.81,0,0,0,.576-.09L116.6-.072a2.6,2.6,0,0,1-1.17.234A2.852,2.852,0,0,1,114.3-.054a1.741,1.741,0,0,1-.792-.657,1.985,1.985,0,0,1-.288-1.107V-1.89l.432-.072A2.028,2.028,0,0,1,113.058-.8a3.236,3.236,0,0,1-1.179.729,4.156,4.156,0,0,1-1.431.252A4.086,4.086,0,0,1,108.864-.1a2.23,2.23,0,0,1-1.026-.819,2.349,2.349,0,0,1-.36-1.332,2.213,2.213,0,0,1,.648-1.647,3.529,3.529,0,0,1,1.854-.873l3.384-.684-.018,1.53-2.16.432a2.724,2.724,0,0,0-.927.333.747.747,0,0,0-.315.675.783.783,0,0,0,.333.684,1.358,1.358,0,0,0,.8.234,3.031,3.031,0,0,0,.738-.09,1.981,1.981,0,0,0,.648-.288,1.33,1.33,0,0,0,.45-.54,1.922,1.922,0,0,0,.162-.828ZM6.534,18.12a5.444,5.444,0,0,1,2.34.459,3.459,3.459,0,0,1,1.5,1.314,3.83,3.83,0,0,1,.531,2.061,3.83,3.83,0,0,1-.531,2.061,3.459,3.459,0,0,1-1.5,1.314,5.444,5.444,0,0,1-2.34.459h-2.5V30H1.548V18.12Zm-.378,5.706a2.522,2.522,0,0,0,1.674-.477,1.734,1.734,0,0,0,.558-1.4,1.729,1.729,0,0,0-.558-1.4,2.556,2.556,0,0,0-1.674-.468H4.032v3.744Zm12.87,6.354a5.213,5.213,0,0,1-2.475-.558,3.918,3.918,0,0,1-1.629-1.6,5.146,5.146,0,0,1-.576-2.52,5.146,5.146,0,0,1,.576-2.52,3.946,3.946,0,0,1,1.611-1.6A4.909,4.909,0,0,1,18.9,20.82a4.586,4.586,0,0,1,2.322.549,3.714,3.714,0,0,1,1.458,1.494,4.5,4.5,0,0,1,.5,2.151q0,.36-.018.684t-.054.576H15.93v-1.71h6.1L20.844,25a2.646,2.646,0,0,0-.513-1.746,1.786,1.786,0,0,0-1.449-.612,2.1,2.1,0,0,0-1.179.324,1.974,1.974,0,0,0-.747.963,4.428,4.428,0,0,0-.252,1.611,3.857,3.857,0,0,0,.279,1.575,1.989,1.989,0,0,0,.792.927,2.728,2.728,0,0,0,2.511,0,2.07,2.07,0,0,0,.756-.846L23,27.948a3.152,3.152,0,0,1-.873,1.206,3.989,3.989,0,0,1-1.386.765A5.516,5.516,0,0,1,19.026,30.18ZM29.862,17.058v10.17a1.374,1.374,0,0,0,.216.882.9.9,0,0,0,.72.252,2.334,2.334,0,0,0,.5-.045q.2-.045.5-.135L31.59,29.8a2.583,2.583,0,0,1-.765.279,4.3,4.3,0,0,1-.909.1A2.53,2.53,0,0,1,28,29.541a2.907,2.907,0,0,1-.6-2.043V17.058Zm9.576,3.762a4.987,4.987,0,0,1,2.4.558,4,4,0,0,1,1.62,1.6,5.081,5.081,0,0,1,.585,2.52,5.094,5.094,0,0,1-.585,2.511,3.989,3.989,0,0,1-1.62,1.611,5.434,5.434,0,0,1-4.8,0,3.974,3.974,0,0,1-1.629-1.611A5.094,5.094,0,0,1,34.83,25.5a5.081,5.081,0,0,1,.585-2.52,3.989,3.989,0,0,1,1.629-1.6A5,5,0,0,1,39.438,20.82Zm0,1.836a2.06,2.06,0,0,0-1.161.315,1.964,1.964,0,0,0-.729.945A4.3,4.3,0,0,0,37.3,25.5a4.3,4.3,0,0,0,.252,1.584,1.964,1.964,0,0,0,.729.945,2.06,2.06,0,0,0,1.161.315,2.027,2.027,0,0,0,1.143-.315,1.964,1.964,0,0,0,.729-.945,4.3,4.3,0,0,0,.252-1.584,4.3,4.3,0,0,0-.252-1.584,1.964,1.964,0,0,0-.729-.945A2.027,2.027,0,0,0,39.438,22.656ZM58.086,30,54.63,18.12h2.646l2.34,9.81,2.376-9.81h2.376l2.412,9.81L69.1,18.12H71.64L68.184,30h-2.79l-1.656-6.48-.558-2.808h-.036l-.558,2.808L60.948,30Zm17.37,0V17.058h2.466V22.53a2.92,2.92,0,0,1,1.188-1.287,3.441,3.441,0,0,1,1.71-.423,3.712,3.712,0,0,1,1.665.36,2.686,2.686,0,0,1,1.152,1.089A3.6,3.6,0,0,1,84.06,24.1V30H81.594V24.816a2.239,2.239,0,0,0-.45-1.611,1.577,1.577,0,0,0-1.152-.441,2.173,2.173,0,0,0-1,.243,1.83,1.83,0,0,0-.774.792,3.045,3.045,0,0,0-.3,1.449V30Zm18.432-5.742a1.611,1.611,0,0,0-.441-1.206,1.588,1.588,0,0,0-1.161-.432,2.034,2.034,0,0,0-1.17.342,1.986,1.986,0,0,0-.738,1.134l-2.106-.648a3.25,3.25,0,0,1,1.341-1.908,4.789,4.789,0,0,1,2.781-.72,5.337,5.337,0,0,1,2.07.369A3.01,3.01,0,0,1,95.841,22.3a3.258,3.258,0,0,1,.5,1.854V27.8q0,.684.648.684a1.81,1.81,0,0,0,.576-.09l-.144,1.53a2.6,2.6,0,0,1-1.17.234,2.852,2.852,0,0,1-1.134-.216,1.741,1.741,0,0,1-.792-.657,1.985,1.985,0,0,1-.288-1.107V28.11l.432-.072A2.028,2.028,0,0,1,93.87,29.2a3.236,3.236,0,0,1-1.179.729,4.156,4.156,0,0,1-1.431.252,4.086,4.086,0,0,1-1.584-.279,2.23,2.23,0,0,1-1.026-.819,2.349,2.349,0,0,1-.36-1.332,2.213,2.213,0,0,1,.648-1.647,3.529,3.529,0,0,1,1.854-.873l3.384-.684-.018,1.53L92,26.508a2.724,2.724,0,0,0-.927.333.747.747,0,0,0-.315.675.783.783,0,0,0,.333.684,1.358,1.358,0,0,0,.8.234,3.031,3.031,0,0,0,.738-.09,1.981,1.981,0,0,0,.648-.288,1.33,1.33,0,0,0,.45-.54,1.922,1.922,0,0,0,.162-.828Zm10.188-6.012v8.82a1.206,1.206,0,0,0,.333.945,1.316,1.316,0,0,0,.909.3,2,2,0,0,0,1.4-.5l.4,1.638a3.253,3.253,0,0,1-1.08.54,4.656,4.656,0,0,1-1.368.2,4.367,4.367,0,0,1-1.593-.27,2.209,2.209,0,0,1-1.08-.864,2.866,2.866,0,0,1-.387-1.584V18.93ZM106.956,21v1.836h-7V21Zm7.434,9.18a6.222,6.222,0,0,1-2.493-.486,4.635,4.635,0,0,1-1.827-1.368l1.422-1.44a3.315,3.315,0,0,0,2.862,1.476,2.58,2.58,0,0,0,1.125-.207A.72.72,0,0,0,115.7,27a1.587,1.587,0,0,0-.792-.333l-1.584-.324a4.392,4.392,0,0,1-2.223-.981,2.3,2.3,0,0,1-.657-1.7,2.419,2.419,0,0,1,.441-1.386,3.124,3.124,0,0,1,1.323-1.053,5.259,5.259,0,0,1,2.2-.4,5.994,5.994,0,0,1,2.349.423,3.557,3.557,0,0,1,1.575,1.251l-1.476,1.44a2.657,2.657,0,0,0-1.035-.963,2.863,2.863,0,0,0-1.341-.333,3.031,3.031,0,0,0-.864.108,1.213,1.213,0,0,0-.54.3.664.664,0,0,0-.18.477.622.622,0,0,0,.252.495,2.284,2.284,0,0,0,.918.351l1.836.378a3.425,3.425,0,0,1,1.908.909,2.218,2.218,0,0,1,.576,1.539,2.672,2.672,0,0,1-.459,1.539,3.045,3.045,0,0,1-1.35,1.062A5.487,5.487,0,0,1,114.39,30.18Zm13.248-5.922a1.611,1.611,0,0,0-.441-1.206,1.588,1.588,0,0,0-1.161-.432,2.034,2.034,0,0,0-1.17.342,1.986,1.986,0,0,0-.738,1.134l-2.106-.648a3.25,3.25,0,0,1,1.341-1.908,4.789,4.789,0,0,1,2.781-.72,5.337,5.337,0,0,1,2.07.369,3.01,3.01,0,0,1,1.377,1.107,3.258,3.258,0,0,1,.495,1.854V27.8q0,.684.648.684a1.81,1.81,0,0,0,.576-.09l-.144,1.53a2.6,2.6,0,0,1-1.17.234,2.852,2.852,0,0,1-1.134-.216,1.741,1.741,0,0,1-.792-.657,1.985,1.985,0,0,1-.288-1.107V28.11l.432-.072a2.028,2.028,0,0,1-.594,1.161,3.236,3.236,0,0,1-1.179.729,4.156,4.156,0,0,1-1.431.252,4.086,4.086,0,0,1-1.584-.279,2.23,2.23,0,0,1-1.026-.819,2.349,2.349,0,0,1-.36-1.332,2.213,2.213,0,0,1,.648-1.647,3.529,3.529,0,0,1,1.854-.873l3.384-.684-.018,1.53-2.16.432a2.724,2.724,0,0,0-.927.333.747.747,0,0,0-.315.675.783.783,0,0,0,.333.684,1.358,1.358,0,0,0,.8.234,3.031,3.031,0,0,0,.738-.09,1.981,1.981,0,0,0,.648-.288,1.33,1.33,0,0,0,.45-.54,1.922,1.922,0,0,0,.162-.828ZM135,33.78V21h2.214l.162,2.862-.306-.324a3.606,3.606,0,0,1,.6-1.4,3.122,3.122,0,0,1,1.125-.963,3.3,3.3,0,0,1,1.53-.351,3.537,3.537,0,0,1,1.962.558,3.784,3.784,0,0,1,1.359,1.593,5.783,5.783,0,0,1,.5,2.511,5.814,5.814,0,0,1-.5,2.529,3.8,3.8,0,0,1-1.377,1.611,3.613,3.613,0,0,1-1.989.558,2.936,2.936,0,0,1-1.971-.666,3.359,3.359,0,0,1-1.071-1.674l.234-.378V33.78Zm4.554-5.49a1.883,1.883,0,0,0,1.557-.711,3.277,3.277,0,0,0,.567-2.079,3.355,3.355,0,0,0-.549-2.079,1.833,1.833,0,0,0-1.539-.711,1.885,1.885,0,0,0-1.107.333,2.195,2.195,0,0,0-.747.954,3.76,3.76,0,0,0-.27,1.5,4.031,4.031,0,0,0,.252,1.485,2.072,2.072,0,0,0,.729.972A1.885,1.885,0,0,0,139.554,28.29Zm8.892,5.49V21h2.214l.162,2.862-.306-.324a3.606,3.606,0,0,1,.6-1.4,3.122,3.122,0,0,1,1.125-.963,3.3,3.3,0,0,1,1.53-.351,3.537,3.537,0,0,1,1.962.558,3.784,3.784,0,0,1,1.359,1.593,5.783,5.783,0,0,1,.495,2.511,5.814,5.814,0,0,1-.5,2.529,3.8,3.8,0,0,1-1.377,1.611,3.613,3.613,0,0,1-1.989.558,2.936,2.936,0,0,1-1.971-.666,3.359,3.359,0,0,1-1.071-1.674l.234-.378V33.78ZM153,28.29a1.883,1.883,0,0,0,1.557-.711,3.277,3.277,0,0,0,.567-2.079,3.355,3.355,0,0,0-.549-2.079,1.833,1.833,0,0,0-1.539-.711,1.885,1.885,0,0,0-1.107.333,2.195,2.195,0,0,0-.747.954,3.76,3.76,0,0,0-.27,1.5,4.031,4.031,0,0,0,.252,1.485,2.072,2.072,0,0,0,.729.972A1.885,1.885,0,0,0,153,28.29Z" transform="translate(838 70)" fill="#82b011"/><path d="M26.782,6.827A15.614,15.614,0,0,0,2.215,25.664L0,33.75l8.276-2.173a15.562,15.562,0,0,0,7.46,1.9h.007A15.76,15.76,0,0,0,31.5,17.866,15.671,15.671,0,0,0,26.782,6.827ZM15.743,30.846a12.951,12.951,0,0,1-6.609-1.807l-.471-.281L3.755,30.045l1.308-4.788-.309-.492a13,13,0,1,1,24.11-6.9,13.119,13.119,0,0,1-13.12,12.98Zm7.116-9.717c-.387-.2-2.306-1.139-2.665-1.266s-.619-.2-.879.2-1.005,1.266-1.237,1.533-.457.3-.844.1a10.617,10.617,0,0,1-5.309-4.641c-.4-.689.4-.64,1.146-2.13a.723.723,0,0,0-.035-.682c-.1-.2-.879-2.116-1.2-2.9-.316-.759-.64-.654-.879-.668s-.485-.014-.745-.014a1.445,1.445,0,0,0-1.041.485A4.383,4.383,0,0,0,7.8,14.4a7.641,7.641,0,0,0,1.589,4.036c.2.26,2.749,4.2,6.666,5.892,2.475,1.069,3.445,1.16,4.683.977a4,4,0,0,0,2.63-1.856,3.262,3.262,0,0,0,.225-1.856C23.505,21.417,23.245,21.319,22.859,21.129Z" transform="translate(775 59.75)" fill="#82b011"/></g></svg>