<svg xmlns="http://www.w3.org/2000/svg" width="33.551" height="33.551" viewBox="0 0 33.551 33.551"><g transform="translate(-687.026 -922.026)"><g transform="translate(687.026 922.026)"><path d="M30.275,2.883H27.151V1.966a1.966,1.966,0,0,0-3.932,0v.917H12.21V1.966a1.966,1.966,0,0,0-3.932,0v.942A.654.654,0,0,0,8.1,2.883H5.493A3.28,3.28,0,0,0,2.216,6.16V17.322a.655.655,0,1,0,1.311,0V9.633H27.151a.655.655,0,0,0,0-1.311H3.527V6.16A1.968,1.968,0,0,1,5.493,4.194H8.1a.657.657,0,0,0,.175-.024v.843a1.966,1.966,0,0,0,3.932,0V4.194H23.219v.819a1.966,1.966,0,0,0,3.932,0V4.194h3.124A1.968,1.968,0,0,1,32.241,6.16v24.9a1.18,1.18,0,1,1-2.36,0v-1.7a.655.655,0,0,0-.655-.655H21.6a.655.655,0,1,0,0,1.311H28.57v1.04a2.475,2.475,0,0,0,.3,1.18H2.49a1.181,1.181,0,0,1-1.18-1.18v-1.04H15.978a.655.655,0,1,0,0-1.311H9.43a5.373,5.373,0,1,0-7,0H.655A.655.655,0,0,0,0,29.366v1.7a2.493,2.493,0,0,0,2.49,2.49H31.061a2.493,2.493,0,0,0,2.491-2.491V6.16A3.28,3.28,0,0,0,30.275,2.883ZM10.9,5.013a.655.655,0,0,1-1.311,0V1.966a.655.655,0,0,1,1.311,0Zm14.941,0a.655.655,0,1,1-1.311,0V1.966a.655.655,0,0,1,1.311,0ZM1.866,24.639A4.063,4.063,0,1,1,5.929,28.7,4.067,4.067,0,0,1,1.866,24.639Z" fill="#a7d82f"/></g><g transform="translate(716.596 930.348)"><path d="M452.358,127.192a.655.655,0,1,0,.192.463A.66.66,0,0,0,452.358,127.192Z" transform="translate(-451.24 -127)" fill="#a7d82f"/></g><g transform="translate(705.478 950.736)"><path d="M282.7,438.321a.656.656,0,1,0,.192.463A.659.659,0,0,0,282.7,438.321Z" transform="translate(-281.58 -438.13)" fill="#a7d82f"/></g><g transform="translate(699.362 941.947)"><path d="M190.735,304a2.49,2.49,0,1,0,2.49,2.49A2.493,2.493,0,0,0,190.735,304Zm0,3.67a1.18,1.18,0,1,1,1.18-1.18A1.181,1.181,0,0,1,190.735,307.67Z" transform="translate(-188.245 -304)" fill="#a7d82f"/></g><g transform="translate(705.478 941.947)"><path d="M284.068,304a2.49,2.49,0,1,0,2.49,2.49A2.493,2.493,0,0,0,284.068,304Zm0,3.67a1.18,1.18,0,1,1,1.18-1.18A1.181,1.181,0,0,1,284.068,307.67Z" transform="translate(-281.578 -304)" fill="#a7d82f"/></g><g transform="translate(711.594 941.947)"><path d="M377.4,304a2.49,2.49,0,1,0,2.49,2.49A2.493,2.493,0,0,0,377.4,304Zm0,3.67a1.18,1.18,0,1,1,1.18-1.18A1.181,1.181,0,0,1,377.4,307.67Z" transform="translate(-374.912 -304)" fill="#a7d82f"/></g><g transform="translate(693.246 935.132)"><path d="M97.4,200a2.49,2.49,0,1,0,2.49,2.49A2.493,2.493,0,0,0,97.4,200Zm0,3.67a1.18,1.18,0,1,1,1.18-1.18A1.181,1.181,0,0,1,97.4,203.67Z" transform="translate(-94.912 -200)" fill="#a7d82f"/></g><g transform="translate(705.478 935.132)"><path d="M284.068,200a2.49,2.49,0,1,0,2.49,2.49A2.493,2.493,0,0,0,284.068,200Zm0,3.67a1.18,1.18,0,1,1,1.18-1.18A1.181,1.181,0,0,1,284.068,203.67Z" transform="translate(-281.578 -200)" fill="#a7d82f"/></g><g transform="translate(711.594 935.132)"><path d="M377.4,200a2.49,2.49,0,1,0,2.49,2.49A2.493,2.493,0,0,0,377.4,200Zm0,3.67a1.18,1.18,0,1,1,1.18-1.18A1.181,1.181,0,0,1,377.4,203.67Z" transform="translate(-374.912 -200)" fill="#a7d82f"/></g><g transform="translate(699.362 935.132)"><path d="M190.735,200a2.49,2.49,0,1,0,2.49,2.49A2.493,2.493,0,0,0,190.735,200Zm0,3.67a1.18,1.18,0,1,1,1.18-1.18A1.181,1.181,0,0,1,190.735,203.67Z" transform="translate(-188.245 -200)" fill="#a7d82f"/></g><g transform="translate(690.381 944.876)"><path d="M56.1,348.892a.655.655,0,0,0-.927,0l-2.134,2.134-.729-.729a.655.655,0,1,0-.927.927l1.193,1.193a.655.655,0,0,0,.927,0l2.6-2.6A.655.655,0,0,0,56.1,348.892Z" transform="translate(-51.194 -348.7)" fill="#a7d82f"/></g></g></svg>