<svg xmlns="http://www.w3.org/2000/svg" width="35.632" height="35.632" viewBox="0 0 35.632 35.632"><g transform="translate(-1 -1)"><path d="M36.632,21.086a7.985,7.985,0,0,0-3.245-6.392,2.445,2.445,0,0,0-1.446-.475,2.42,2.42,0,0,0-1.7.7c-.083-.07-.159-.146-.245-.212a2.39,2.39,0,0,0-1.095-.448l.253-2.787c.006-.067.009-.134.009-.2a2.227,2.227,0,0,0-2.224-2.224h-.149a2.227,2.227,0,0,0-2.224,2.224c0,.067,0,.134.009.2l.255,2.8a2.46,2.46,0,0,0-1.014.432c-.1.077-.194.166-.293.247-.051-.053-.105-.1-.161-.15a3.358,3.358,0,0,0-.594-2.592,3.446,3.446,0,0,0-3-5.453,3.434,3.434,0,0,0-2.287-2.162,3.4,3.4,0,0,0-2.886-1.286,3.444,3.444,0,0,0-6.235-.579A3.464,3.464,0,0,0,5.143,5.314,4.618,4.618,0,0,0,2.149,9.621a4.572,4.572,0,0,0,2.011,3.8,3.432,3.432,0,0,0,.962,4.022,3.328,3.328,0,0,0-.1.8,3.454,3.454,0,0,0,3.034,3.424l1.271,3.56A6.355,6.355,0,0,0,7.7,27l-3.011-.669a1.557,1.557,0,0,0-.351-.039,1.612,1.612,0,0,0-1.61,1.61v.228a1.592,1.592,0,0,0,.075.461H2.724a1.724,1.724,0,1,0,0,3.448H2.8a1.593,1.593,0,0,0-.075.461v.228a1.612,1.612,0,0,0,1.61,1.61,1.572,1.572,0,0,0,.349-.039l3.012-.67a6.317,6.317,0,0,0,5.373,3.007H13.2a6.348,6.348,0,0,0,.961-.074l19.707-3.032a3.247,3.247,0,0,0,.9-6.148,7.948,7.948,0,0,0,1.864-5.085Zm-7.337-5.466a7.065,7.065,0,0,1,2.74,5.59V23.32a7.1,7.1,0,0,1-.847,3.361l-4.609-.709a11.46,11.46,0,0,1-.291-2.541V21.1a11.441,11.441,0,0,1,.146-1.732c.141.012.281.025.429.025,1.638,0,2.874-.741,2.874-1.724a1.563,1.563,0,0,0-1.025-1.34l.084-.93a1.2,1.2,0,0,1,.5.223ZM26.787,10.2h.15a1.076,1.076,0,0,1,1.075,1.075.919.919,0,0,1,0,.1l-.522,5.74.439.141c.5.161.662.373.662.418,0,.143-.611.575-1.724.575s-1.724-.432-1.724-.575c0-.045.159-.257.662-.419l.439-.141-.522-5.739c0-.033,0-.066,0-.1A1.076,1.076,0,0,1,26.787,10.2Zm-1.856,5.22.083.911a1.563,1.563,0,0,0-1.025,1.34c0,.633.517,1.163,1.32,1.461a12.662,12.662,0,0,0-.17,1.97v2.333a12.629,12.629,0,0,0,.223,2.353l-3.388-.521a6.92,6.92,0,0,1-.283-1.944V21.209a7,7,0,0,1,2.81-5.586A1.285,1.285,0,0,1,24.931,15.415ZM18.72,24.763a6.684,6.684,0,0,1-.479-2.469V21.085a6.834,6.834,0,0,1,2.779-5.468,1.3,1.3,0,0,1,.763-.249,1.27,1.27,0,0,1,.9.374,8.141,8.141,0,0,0-2.144,5.468V23.32a8.049,8.049,0,0,0,.2,1.753Zm.054-17.268.1.591.586-.13A2.294,2.294,0,0,1,21.6,11.8l-.4.4.4.4a2.285,2.285,0,0,1,.66,1.609c0,.017,0,.034,0,.052a2.381,2.381,0,0,0-1.924.422,8.012,8.012,0,0,0-2.428,2.919q-.327-1.017-.682-1.944a8.151,8.151,0,0,1,2.524-4.45l-.36-.448-.359-.449a9.1,9.1,0,0,0-2.507,3.624,35.712,35.712,0,0,0-2.4-4.635l-.967.622a33.826,33.826,0,0,1,1.912,3.6,9.469,9.469,0,0,0-3.784-.457l.114,1.144c.864-.087,3.313-.045,4.456,1.122.4.99.8,2.076,1.151,3.239a9.728,9.728,0,0,0-3.94-.91v1.149a7.725,7.725,0,0,1,4.1,1.221,7.761,7.761,0,0,0-.077,1.048v1.209a7.842,7.842,0,0,0,.341,2.271l-3.268-.5c-.172-.026-.347-.044-.521-.057A2.3,2.3,0,0,1,11.5,20.872l.168-.44-.4-.252a2.287,2.287,0,0,1-.693-3.209l.358-.538-.576-.293a3.444,3.444,0,0,1,.609-6.386l.357-.1.053-.367a2.3,2.3,0,0,1,2.263-1.965.455.455,0,0,1,.063.007c.04.006.081.011.122.014l.412.033L14.4,7a2.294,2.294,0,0,1,4.372.5ZM8.876,20.54H8.471A2.282,2.282,0,0,1,6.33,17.424l.168-.44-.4-.252a2.286,2.286,0,0,1-.694-3.209l.358-.538-.576-.293A3.444,3.444,0,0,1,5.8,6.308l.357-.1.053-.367A2.305,2.305,0,0,1,8.471,3.874a.48.48,0,0,1,.064.007c.039.005.078.01.118.014l.414.034.163-.382a2.294,2.294,0,0,1,4.371.5l.1.591.586-.13a2.107,2.107,0,0,1,1.256.083A3.441,3.441,0,0,0,13.53,6.174a3.464,3.464,0,0,0-3.214,2.588,4.593,4.593,0,0,0-.983,8.1,3.433,3.433,0,0,0,.962,4.022,3.323,3.323,0,0,0-.1.8,3.459,3.459,0,0,0,1.122,2.551,6.259,6.259,0,0,0-.984.379Zm-5,7.585V27.9a.468.468,0,0,1,.561-.45l2.735.608c-.067.174-.126.35-.178.53H4.334A.462.462,0,0,1,3.874,28.125ZM2.149,30.31a.576.576,0,0,1,.575-.575H6.776c-.017.19-.029.38-.029.575s.012.385.029.575H2.724a.576.576,0,0,1-.575-.575Zm2.284,2.863a.473.473,0,0,1-.56-.45V32.5a.462.462,0,0,1,.461-.461H6.992c.051.18.111.357.178.53ZM35.483,30.31a2.093,2.093,0,0,1-1.784,2.08L13.991,35.422a5.183,5.183,0,0,1-.787.06h-.135a5.172,5.172,0,1,1,0-10.345H13.2a5.244,5.244,0,0,1,.787.06L33.7,28.229A2.094,2.094,0,0,1,35.483,30.31Zm0-8.017a6.8,6.8,0,0,1-1.96,4.746l-1.142-.176a8.243,8.243,0,0,0,.8-3.544V21.209a8.245,8.245,0,0,0-2.115-5.49,1.27,1.27,0,0,1,.872-.351,1.287,1.287,0,0,1,.763.251,6.832,6.832,0,0,1,2.779,5.467Z" fill="#a7d82f"/><path d="M21,47h1.149v5.747H21Z" transform="translate(-8.506 -19.563)" fill="#a7d82f"/><path d="M29,47h1.149v5.747H29Z" transform="translate(-11.908 -19.563)" fill="#a7d82f"/><path d="M37,47h1.149v5.747H37Z" transform="translate(-15.31 -19.563)" fill="#a7d82f"/><path d="M45,49h1.149v3.448H45Z" transform="translate(-18.713 -20.414)" fill="#a7d82f"/><path d="M53,50h1.149v2.3H53Z" transform="translate(-22.115 -20.839)" fill="#a7d82f"/></g></svg>