<svg xmlns="http://www.w3.org/2000/svg" width="45.019" height="27.433" viewBox="0 0 45.019 27.433"><path d="M456.7,196h.7a.7.7,0,1,1,0,1.407h-.7a.7.7,0,1,1,0-1.407Z" transform="translate(-453.186 -187.559)" fill="#a7d82f"/><path d="M424.7,196h.7a.7.7,0,1,1,0,1.407h-.7a.7.7,0,0,1,0-1.407Z" transform="translate(-418.373 -187.559)" fill="#a7d82f"/><path d="M392.7,196h.7a.7.7,0,1,1,0,1.407h-.7a.7.7,0,0,1,0-1.407Z" transform="translate(-383.559 -187.559)" fill="#a7d82f"/><path d="M66.814,324A2.814,2.814,0,1,1,64,326.814,2.814,2.814,0,0,1,66.814,324Zm0,4.22a1.407,1.407,0,1,0-1.407-1.407A1.407,1.407,0,0,0,66.814,328.22Z" transform="translate(-30.236 -304.304)" fill="#a7d82f"/><path d="M384.823,325.1l0,0a2.875,2.875,0,0,1,3.977,0,2.814,2.814,0,1,1-3.979,0Zm.992,2.976,0,0a1.407,1.407,0,1,0,2.07-1.906q-.039-.043-.082-.082a1.435,1.435,0,0,0-1.988,0A1.4,1.4,0,0,0,385.816,328.078Z" transform="translate(-378.373 -304.579)" fill="#a7d82f"/><path d="M0,102.11A2.11,2.11,0,0,1,2.11,100H16.179a2.11,2.11,0,0,1,2.11,2.11v2.814H26.73a6.322,6.322,0,0,1,6.331,6.314v.017a.7.7,0,0,0,.7.7h4.924a6.338,6.338,0,0,1,6.331,6.331V121.1a2.11,2.11,0,0,1-2.11,2.11H41.445a4.918,4.918,0,0,1-9.735,0h-18.4a4.939,4.939,0,0,1-4.537,4.206c-.115.007-.222.014-.338.014a4.931,4.931,0,0,1-4.858-4.22H1.407A1.407,1.407,0,0,1,0,121.806v-9.144a.7.7,0,0,1,.211-.5A2.1,2.1,0,0,1,0,111.255Zm36.578,23.916a3.517,3.517,0,1,0-3.517-3.517A3.517,3.517,0,0,0,36.578,126.026ZM4.937,122.763a3.517,3.517,0,0,0,3.5,3.264c.084,0,.162-.006.261-.013a3.517,3.517,0,0,0,3.263-3.5c0-.081-.006-.153-.013-.253a3.517,3.517,0,0,0-3.5-3.264c-.084,0-.162.006-.245.011H8.186a3.517,3.517,0,0,0-3.262,3.506C4.924,122.59,4.93,122.662,4.937,122.763Zm-3.53-.957H3.573A4.93,4.93,0,0,1,8.089,117.6H8.11c.115-.007.222-.014.338-.014a4.931,4.931,0,0,1,4.858,4.22h18.4a4.918,4.918,0,0,1,9.735,0h1.463a.7.7,0,0,0,.7-.7v-2.814a4.932,4.932,0,0,0-.056-.7h-.647a.7.7,0,0,1,0-1.407h.222a4.924,4.924,0,0,0-4.442-2.814H33.764a2.11,2.11,0,0,1-2.11-2.11,4.916,4.916,0,0,0-4.908-4.924H18.289v4.924a2.11,2.11,0,0,1-2.11,2.11H1.407Zm0-10.551a.7.7,0,0,0,.7.7H16.179a.7.7,0,0,0,.7-.7V102.11a.7.7,0,0,0-.7-.7H2.11a.7.7,0,0,0-.7.7Z" transform="translate(0 -100)" fill="#a7d82f"/><path d="M160.7,180h5.627a4.93,4.93,0,0,1,4.924,4.924v.7a.7.7,0,0,1-.7.7H160.7a.7.7,0,0,1-.7-.7V180.7A.7.7,0,0,1,160.7,180Zm.7,4.924h8.441a3.521,3.521,0,0,0-3.517-3.517h-4.924Z" transform="translate(-140.304 -172.966)" fill="#a7d82f"/><path d="M264.7,260h.7a.7.7,0,1,1,0,1.407h-.7a.7.7,0,0,1,0-1.407Z" transform="translate(-244.304 -245.932)" fill="#a7d82f"/></svg>