<svg xmlns="http://www.w3.org/2000/svg" xmlns:xlink="http://www.w3.org/1999/xlink" width="348.589" height="106.534" viewBox="0 0 348.589 106.534"><defs><linearGradient id="a" y1="0.5" x2="1" y2="0.5" gradientUnits="objectBoundingBox"><stop offset="0" stop-color="#00862f"/><stop offset="1" stop-color="#86b110"/></linearGradient><linearGradient id="c" x1="0.752" y1="-0.237" x2="-0.056" y2="1.275" xlink:href="#a"/></defs><g transform="translate(-118.494 -171.229)"><g transform="translate(118.494 171.873)"><path d="M204.036,224.957c-7.016-2.507-14.333-4.271-18.436-12.262,7.622-1.363,12.493,2.457,17.812,6.811-.073-3.8-1.653-6.232-3.658-8.683-5.99-.732-12.572-.12-17.012-6.3,4.307-2.35,8.129.839,12.6-.2-6.905-2.869-14.628-4.868-14.571-14.612,4.184-1.007,7.767.446,11.449,2.4,4.347,2.307,2.079,7.256,4.294,10.886,1.6-2.792.448-5.92,3.064-7.635,3.735,3.975-.647,9.368,2.612,13.88,1.362-2.084.522-4.669,2.7-6.133,3.336,3.848,4.167,8.691,3.753,13.274-.639,7.073-.051,14.122-.5,21.163-1.327,20.763-19.029,38.555-40.383,40.631-20.85,2.026-42.753-11.9-47.5-31.449-5.116-21.055.389-40.237,23.38-54.538a76.34,76.34,0,0,0,7.34-4.829A53.248,53.248,0,0,0,121.4,207.487c1.4-11.7,5.85-21.59,15.674-28.55,10.57-7.488,31.239-8.652,43.4-2.477.441,12.411-10.489,27.128-23.76,32.146-5.6,2.116-11.5,2.659-17.306,3.747-12.386,2.322-17.347,9.146-15.8,21.641,2.412,19.493,20.476,35.274,40.625,35.491,19.213.207,37.692-15.47,40.493-34.439C205.2,231.82,205.54,228.527,204.036,224.957Z" transform="translate(-118.494 -172.485)" fill="url(#a)"/><path d="M219.133,289.051c-16.85,7.321-32.151,14.651-36.2,34.076-8.1-.41-15-2.386-20.317-8.226C168.987,299.431,195.975,286.845,219.133,289.051Z" transform="translate(-139.996 -229.172)" fill="url(#a)"/><path d="M211.73,326.093c-.187-12.682,19.874-28.132,33.132-29.788C246.164,310.573,226.481,328.268,211.73,326.093Z" transform="translate(-163.933 -232.83)" fill="#007fc6"/><path d="M149.3,312.374c-4.881-3.035-7.1-6.432-8.035-12.292,11.5-7.824,24.4-11.229,38.65-10.558A61.451,61.451,0,0,0,149.3,312.374Z" transform="translate(-129.59 -229.486)" fill="url(#c)"/><path d="M209.2,272.5H186.795c-.958-6,3.327-11.046,9.68-11.892C203.12,259.728,208.6,264.506,209.2,272.5Z" transform="translate(-151.716 -215.384)" fill="#faae0e"/><path d="M139.226,260.154c6.325,2.415,12.593,4.2,18.008,7.143a4.729,4.729,0,0,1-1.025,5.084,90.554,90.554,0,0,1-20.211.014C134.268,266.387,134.994,263.649,139.226,260.154Z" transform="translate(-126.6 -215.212)" fill="#faae0e"/><path d="M227.024,219.011c-3.863,5-5.374,11.652-9.673,16.845-1.713.713-3.147.071-4.677-1.114-1.075-2.887-.7-5.944-.2-9.313a60.332,60.332,0,0,0,10-10.38C225.093,214.981,226.114,216.526,227.024,219.011Z" transform="translate(-164.055 -193.228)" fill="#faae0e"/><path d="M237.874,271.622c3.1-2.429,6.569-3.381,10.266-4.975,3.158,3.308,9.4,2.268,11.524,7.882C251.363,277.943,238.91,276.263,237.874,271.622Z" transform="translate(-176.675 -218.376)" fill="#faae0e"/><path d="M237.555,242.362c-1.161,3.483-.857,5.923,1.366,7.718a19.159,19.159,0,0,1-6.515,5.613c-2.366-.4-2.761-2.339-3.74-3.614A20.678,20.678,0,0,1,237.555,242.362Z" transform="translate(-172.188 -206.541)" fill="#faae0e"/><path d="M137.814,296.514c-2.064-3.471-2.064-3.471-1.591-7.262,5.052-1.267,10.234-.431,15.516-.032C147.048,291.795,142.04,293.4,137.814,296.514Z" transform="translate(-127.009 -229.064)" fill="#007fc6"/><path d="M161.71,252.982l8.743-1.711c2.439,1.043,3.517,2.85,4.683,4.411a5.715,5.715,0,0,1-3.558,4.324C168.3,258.185,164.8,256.573,161.71,252.982Z" transform="translate(-139.556 -210.882)" fill="#faae0e"/><path d="M192.9,249.747c-1.365-1.065-2.2-2.015-2.073-3.738,1.444-1.835,3.713-2.049,5.716-2.677,1.77,1.57,1.386,3.12,1.019,4.517C196.308,249.524,194.757,249.8,192.9,249.747Z" transform="translate(-153.739 -207.013)" fill="#faae0e"/></g><g transform="translate(241.284 171.229)"><path d="M21.042-39.753c0,1.911-1.553,3.435-4.778,3.435H9.156l.418-.448v-6.063l-.418-.418h7.437C19.34-43.247,21.042-42.262,21.042-39.753Zm2.688,8.631a5.667,5.667,0,0,0-2.539-2.568v-.06a6.924,6.924,0,0,0,4.271-6c0-5.047-4.181-7.437-8.87-7.437H5.243V-23H9.574v-8.99l-.418-.418h5.107c2.927,0,4.48.956,5.5,3.016L22.983-23h4.868ZM38.394-34.2l.418-.418a4.85,4.85,0,0,1,5.167-3.793c2.807,0,4.48,1.284,5.137,3.793l.388.418Zm15.172,1.941c0-5.555-3.076-9.856-9.557-9.856-6.182,0-9.706,4.181-9.706,9.856,0,5.376,3.106,9.557,9.826,9.557a11.324,11.324,0,0,0,7.885-2.957l-2.807-2.807a7.25,7.25,0,0,1-5.047,2.091c-2.987,0-4.779-1.374-5.376-3.793l-.418-.418H53.476C53.536-31.182,53.566-31.839,53.566-32.257Zm22.4,3.763a6.355,6.355,0,0,1-4.749,2.061c-3.883,0-5.465-2.568-5.465-5.824,0-3.4,1.852-6.093,5.525-6.122a6.21,6.21,0,0,1,4.6,1.941l2.9-2.9a10.228,10.228,0,0,0-7.526-2.778c-6.242,0-9.736,4.36-9.736,9.856,0,5.346,3.106,9.557,9.676,9.557a10.736,10.736,0,0,0,7.646-2.9Zm23.892-2.539v2.27c0,2.15-3.763,2.359-5.406,2.359-1.7,0-4.211-.418-4.211-2.33,0-1.224,1.015-1.941,2.927-2.359a19.437,19.437,0,0,1,2.987-.358c1.015-.03,2-.03,2.837-.03.239,0,.986,0,1.284.03Zm4.241-4c0-5.465-4.51-7.048-8.661-7.048a13.039,13.039,0,0,0-8.243,2.568l2.748,2.778a8.974,8.974,0,0,1,5.5-1.613c2.479,0,4.151.806,4.39,2.837l.478.418c-.358-.03-1.195-.03-1.493-.03-4.9,0-12.782.478-12.782,6.391,0,4.659,4.569,6.063,8.422,6.063A9.348,9.348,0,0,0,99.8-24.163h.06v1.195H104.1Zm27.894.269c0-4.689-3.375-7.347-8.183-7.347a8.563,8.563,0,0,0-5.525,2h-.06v-1.732h-4.241V-23h4.241v-11.05c0-2.807,2.15-4.331,5.017-4.331,3.823,0,4.51,1.613,4.51,4.092V-23h4.241Zm19.771,6.779a3.938,3.938,0,0,1-2.957,1.553c-1.284,0-2.12-.986-2.12-2.748v-8.661l-.239-.418h5.884v-3.524h-5.884l.239-.418V-47.07l-4.241,2.3V-42.2l.239.418h-2.6v3.524h2.6l-.239.418v8.691c0,4.181,2.091,6.451,6.182,6.451a7.749,7.749,0,0,0,5.764-2.658Zm24.251-4.42c0,3.494-1.613,5.973-5.376,5.973s-5.406-2.509-5.406-5.973c0-3.494,1.613-5.973,5.376-5.973S176.015-35.871,176.015-32.406Zm4.241,0c0-5.525-3.2-9.706-9.647-9.706s-9.617,4.211-9.617,9.706,3.166,9.706,9.617,9.706C177.03-22.7,180.256-26.941,180.256-32.406Z" transform="translate(-4.198 73.552)" fill="#539d21"/><path d="M9.755-21.9a4.538,4.538,0,0,0-3.577-1.431c-3.112,0-4.832,2.159-4.832,5.271s1.632,5.146,4.819,5.146A4.565,4.565,0,0,0,9.73-14.346L9.077-15a3.518,3.518,0,0,1-2.912,1.242c-2.8,0-3.9-1.945-3.9-4.3,0-2.4,1.142-4.43,3.916-4.43a3.466,3.466,0,0,1,2.9,1.255Zm11.5-1.305h-.879v4.581l.088.075H14.009l.088-.075v-4.581h-.879v10.166H14.1v-4.581l-.088-.075H20.46l-.088.075v4.581h.879Zm5.723,6.664.088-.075,2.008-4.593.3-.954H29.4l.276.954L31.68-16.63l.1.088Zm2.8-6.664h-.778L24.526-13.041h.966l1.13-2.573L26.6-15.7h5.56l-.038.088,1.142,2.573h.966Zm.427-3.552-2.046,2.4.326.326,2.4-2.058ZM45.1-21.9a4.538,4.538,0,0,0-3.577-1.431c-3.112,0-4.832,2.159-4.832,5.271s1.632,5.146,4.819,5.146a4.565,4.565,0,0,0,3.564-1.431L44.418-15a3.518,3.518,0,0,1-2.912,1.242c-2.8,0-3.9-1.945-3.9-4.3,0-2.4,1.142-4.43,3.916-4.43a3.466,3.466,0,0,1,2.9,1.255Zm4.97,5.359.088-.075,2.008-4.593.3-.954h.025l.276.954,2.008,4.581.1.088Zm2.8-6.664h-.778L47.618-13.041h.966l1.13-2.573-.025-.088h5.56l-.038.088,1.142,2.573h.966Zm14.37,2.937c0,1.23-.954,2.058-2.472,2.058H61.386l.088-.088v-3.966l-.088-.1h3.5C66.18-22.366,67.234-21.8,67.234-20.27Zm.226,4.179a2.738,2.738,0,0,0-1.468-1.481V-17.6A2.684,2.684,0,0,0,68.15-20.27c0-1.958-1.456-2.937-3.263-2.937H60.6v10.166h.879V-17.27l-.088-.1h2.535A2.692,2.692,0,0,1,66.657-15.7l1.255,2.661h1.029Zm6.137-.452.088-.075,2.008-4.593.3-.954h.025l.276.954L78.3-16.63l.1.088Zm2.8-6.664h-.778L71.15-13.041h.966l1.129-2.573L73.22-15.7h5.56l-.038.088,1.142,2.573h.966Z" transform="translate(-0.374 26.758)" fill="#272727"/><path d="M18.107-41.945c0,3.524-1.523,5.943-5.316,5.943-3.853,0-5.346-2.389-5.346-5.943s1.523-6,5.346-6S18.107-45.529,18.107-41.945Zm4-15.709H17.868v7.974h-.06a7.65,7.65,0,0,0-5.465-2c-6.093,0-9.139,4.151-9.139,9.736,0,5.555,3.106,9.676,9.139,9.676a7.929,7.929,0,0,0,5.465-1.822h.06v1.553h4.241ZM44.927-40.6v2.27c0,2.15-3.763,2.359-5.406,2.359-1.7,0-4.211-.418-4.211-2.33,0-1.224,1.015-1.941,2.927-2.359a19.438,19.438,0,0,1,2.987-.358c1.015-.03,2-.03,2.837-.03.239,0,.986,0,1.284.03Zm4.241-4c0-5.465-4.51-7.048-8.661-7.048a13.039,13.039,0,0,0-8.243,2.568l2.748,2.778a8.974,8.974,0,0,1,5.5-1.613c2.479,0,4.151.806,4.39,2.837l.478.418c-.358-.03-1.195-.03-1.493-.03-4.9,0-12.782.478-12.782,6.391,0,4.659,4.569,6.063,8.422,6.063a9.348,9.348,0,0,0,5.346-1.493h.06v1.195h4.241Zm26.043,6.57c0-2.688-1.852-4.45-5.734-5.465-.448-.09-2.628-.717-3.046-.836-2.539-.657-3.584-.986-3.584-1.852,0-.508.717-1.762,3.883-1.762a7.335,7.335,0,0,1,5.2,2.12l2.927-2.9a11.06,11.06,0,0,0-8.123-2.957c-5.286,0-8.153,2.479-8.153,5.555,0,3.255,2.987,4.6,6.272,5.436.418.119,2.957.806,3.345.9,2.509.627,2.748,1.254,2.748,1.882,0,.717-.806,1.941-4.092,1.941a8.264,8.264,0,0,1-5.884-2.688L58.008-35.7a13.328,13.328,0,0,0,8.93,3.464C72.672-32.238,75.21-34.986,75.21-38.032ZM104.9-42.273l.418-.388,3.166-6.779.687-2h.06l.6,2,3.166,6.779.418.388Zm6.272-14.485h-4L95.877-32.567h4.749l2.509-5.376-.239-.388h12.544l-.239.388,2.509,5.376h4.749Zm-.209-10.065L105.4-60.342l1.672,1.672,6.481-5.555ZM144.11-42.572c0,2.987-1.434,5.226-5.316,5.226-3.494,0-5.346-2.091-5.346-5.226,0-3.076,1.7-5.376,5.346-5.376C142.378-47.948,144.11-45.708,144.11-42.572Zm-.239-8.81v1.523h-.06a8.016,8.016,0,0,0-5.286-1.822c-6.122,0-9.318,4.181-9.318,9.109,0,5.286,3.136,8.96,9.318,8.96a8.167,8.167,0,0,0,5.286-1.672h.06v.806c0,2.867-1.613,4.6-5.017,4.6A9.686,9.686,0,0,1,133.3-31.94l-2.957,2.957a13.637,13.637,0,0,0,8.512,2.837c6.152,0,9.258-3.076,9.258-8.333v-16.9Zm31.9,0h-4.241v11.05c0,2.837-2.031,4.331-4.9,4.331-3.733,0-4.39-1.643-4.39-3.972V-51.382H158v11.558c0,4.6,2.419,7.556,8.034,7.556a7.8,7.8,0,0,0,5.436-2h.06v1.732h4.241ZM198.585-40.6v2.27c0,2.15-3.763,2.359-5.406,2.359-1.7,0-4.211-.418-4.211-2.33,0-1.224,1.015-1.941,2.927-2.359a19.437,19.437,0,0,1,2.987-.358c1.015-.03,2-.03,2.837-.03.239,0,.986,0,1.284.03Zm4.241-4c0-5.465-4.51-7.048-8.661-7.048a13.039,13.039,0,0,0-8.243,2.568l2.748,2.778a8.974,8.974,0,0,1,5.5-1.613c2.479,0,4.151.806,4.39,2.837l.478.418c-.358-.03-1.195-.03-1.493-.03-4.9,0-12.783.478-12.783,6.391,0,4.659,4.569,6.063,8.422,6.063a9.348,9.348,0,0,0,5.346-1.493h.06v1.195h4.241Zm26.043,6.57c0-2.688-1.852-4.45-5.734-5.465-.448-.09-2.628-.717-3.046-.836-2.539-.657-3.584-.986-3.584-1.852,0-.508.717-1.762,3.883-1.762a7.335,7.335,0,0,1,5.2,2.12l2.927-2.9a11.06,11.06,0,0,0-8.123-2.957c-5.286,0-8.153,2.479-8.153,5.555,0,3.255,2.987,4.6,6.272,5.436.418.119,2.957.806,3.345.9,2.509.627,2.748,1.254,2.748,1.882,0,.717-.806,1.941-4.092,1.941a8.264,8.264,0,0,1-5.884-2.688L211.666-35.7a13.328,13.328,0,0,0,8.93,3.464C226.33-32.238,228.869-34.986,228.869-38.032Z" transform="translate(-3.204 123.733)" fill="#539d21"/><rect width="130.328" height="1.083" transform="translate(95.471 7.779)" fill="#272727"/></g></g></svg>